# xmcd
#
# Track frame offsets: 
#        150
#        22482
#        44814
#        67472
#        89424
#        112150
#        135532
#        157119
#        180195
#        200137
#        219060
#        242044
#        263702
#        285362
#        303567
#
# Disc length: 4202 seconds
#
# Revision: 1
# Processed by: cddbd v1.5.2PL0 Copyright (c) Steve Scherf et al.
# Submitted via: ExactAudioCopy v1.0b1
#
DISCID=ea10680f
DTITLE=Andreas Eschbach - Der Letzte seiner Art. Gelesen von Martin Ma
DTITLE=y
DYEAR=2004
DGENRE=Speech
TTITLE0=01 Der Letzte seiner Art
TTITLE1=02 Der Letzte seiner Art
TTITLE2=03 Der Letzte seiner Art
TTITLE3=04 Der Letzte seiner Art
TTITLE4=05 Der Letzte seiner Art
TTITLE5=06 Der Letzte seiner Art
TTITLE6=07 Der Letzte seiner Art
TTITLE7=08 Der Letzte seiner Art
TTITLE8=09 Der Letzte seiner Art
TTITLE9=10 Der Letzte seiner Art
TTITLE10=11 Der Letzte seiner Art
TTITLE11=12 Der Letzte seiner Art
TTITLE12=13 Der Letzte seiner Art
TTITLE13=14 Der Letzte seiner Art
TTITLE14=15 Der Letzte seiner Art
EXTD=gelesen von Martin May
EXTT0=
EXTT1=
EXTT2=
EXTT3=
EXTT4=
EXTT5=
EXTT6=
EXTT7=
EXTT8=
EXTT9=
EXTT10=
EXTT11=
EXTT12=
EXTT13=
EXTT14=
PLAYORDER=
